<svg width="50" height="50" viewBox="0 0 50 50" fill="none" xmlns="http://www.w3.org/2000/svg">
<path d="M7.08076 34.3499C7.14352 34.3495 7.20628 34.3492 7.27094 34.3488C7.48152 34.3479 7.69206 34.3484 7.90264 34.3489C8.05503 34.3485 8.20742 34.3481 8.35981 34.3475C8.77881 34.3463 9.19781 34.3464 9.61682 34.3466C10.0686 34.3466 10.5205 34.3456 10.9723 34.3446C11.8576 34.343 12.743 34.3425 13.6283 34.3424C14.348 34.3423 15.0677 34.3419 15.7874 34.3413C17.8277 34.3395 19.868 34.3386 21.9083 34.3388C22.0733 34.3388 22.0733 34.3388 22.2417 34.3388C22.3518 34.3388 22.462 34.3388 22.5755 34.3388C24.3604 34.3389 26.1452 34.337 27.9301 34.3343C29.7626 34.3315 31.5952 34.3301 33.4277 34.3303C34.4566 34.3304 35.4855 34.3298 36.5144 34.3277C37.3905 34.3259 38.2666 34.3255 39.1427 34.3269C39.5897 34.3275 40.0366 34.3275 40.4835 34.3258C40.8929 34.3243 41.3023 34.3245 41.7118 34.3263C41.8596 34.3266 42.0074 34.3262 42.1552 34.3251C43.2872 34.3173 44.1944 34.4538 45.0436 35.255C45.6637 35.958 45.9476 36.8019 45.9222 37.7335C45.8429 38.587 45.5256 39.2355 44.9219 39.8437C44.2708 40.3726 43.6602 40.6491 42.8112 40.6501C42.7172 40.6506 42.7172 40.6506 42.6212 40.6512C42.4114 40.6521 42.2016 40.6516 41.9918 40.6511C41.8397 40.6515 41.6877 40.6519 41.5356 40.6525C41.1179 40.6536 40.7003 40.6536 40.2826 40.6534C39.832 40.6534 39.3815 40.6544 38.9309 40.6554C38.0483 40.657 37.1656 40.6575 36.283 40.6576C35.5655 40.6577 34.848 40.6581 34.1305 40.6587C32.0961 40.6605 30.0618 40.6614 28.0275 40.6612C27.9178 40.6612 27.8082 40.6612 27.6952 40.6612C27.5853 40.6612 27.4755 40.6612 27.3624 40.6612C25.5829 40.6611 23.8034 40.663 22.0239 40.6657C20.1967 40.6685 18.3694 40.6699 16.5422 40.6697C15.5164 40.6696 14.4905 40.6702 13.4647 40.6723C12.5913 40.674 11.7178 40.6745 10.8444 40.6731C10.3988 40.6725 9.95334 40.6725 9.5078 40.6742C9.09961 40.6757 8.69146 40.6754 8.28326 40.6737C8.13592 40.6734 7.98858 40.6738 7.84125 40.6749C6.71066 40.6827 5.80459 40.5451 4.9565 39.7449C4.33643 39.042 4.05257 38.1981 4.07798 37.2665C4.15715 36.4135 4.4742 35.7637 5.07819 35.1562C5.70452 34.6554 6.26762 34.3509 7.08076 34.3499Z" fill="#B8231E"/>
<path d="M7.08076 21.8499C7.14352 21.8495 7.20628 21.8492 7.27094 21.8488C7.48152 21.8479 7.69206 21.8484 7.90264 21.8489C8.05503 21.8485 8.20742 21.8481 8.35981 21.8475C8.77881 21.8463 9.19781 21.8464 9.61682 21.8466C10.0686 21.8466 10.5205 21.8456 10.9723 21.8446C11.8576 21.843 12.743 21.8425 13.6283 21.8424C14.348 21.8423 15.0677 21.8419 15.7874 21.8413C17.8277 21.8395 19.868 21.8386 21.9083 21.8388C22.0733 21.8388 22.0733 21.8388 22.2417 21.8388C22.3518 21.8388 22.462 21.8388 22.5755 21.8388C24.3604 21.8389 26.1452 21.837 27.9301 21.8343C29.7626 21.8315 31.5952 21.8301 33.4277 21.8303C34.4566 21.8304 35.4855 21.8298 36.5144 21.8277C37.3905 21.8259 38.2666 21.8255 39.1427 21.8269C39.5897 21.8275 40.0366 21.8275 40.4835 21.8258C40.8929 21.8243 41.3023 21.8245 41.7118 21.8263C41.8596 21.8266 42.0074 21.8262 42.1552 21.8251C43.2872 21.8173 44.1944 21.9538 45.0436 22.755C45.6637 23.458 45.9476 24.3019 45.9222 25.2335C45.8429 26.087 45.5256 26.7355 44.9219 27.3437C44.2708 27.8726 43.6602 28.1491 42.8112 28.1501C42.7172 28.1506 42.7172 28.1506 42.6212 28.1512C42.4114 28.1521 42.2016 28.1516 41.9918 28.1511C41.8397 28.1515 41.6877 28.1519 41.5356 28.1525C41.1179 28.1536 40.7003 28.1536 40.2826 28.1534C39.832 28.1534 39.3815 28.1544 38.9309 28.1554C38.0483 28.157 37.1656 28.1575 36.283 28.1576C35.5655 28.1577 34.848 28.1581 34.1305 28.1587C32.0961 28.1605 30.0618 28.1614 28.0275 28.1612C27.9178 28.1612 27.8082 28.1612 27.6952 28.1612C27.5853 28.1612 27.4755 28.1612 27.3624 28.1612C25.5829 28.1611 23.8034 28.163 22.0239 28.1657C20.1967 28.1685 18.3694 28.1699 16.5422 28.1697C15.5164 28.1696 14.4905 28.1702 13.4647 28.1723C12.5913 28.174 11.7178 28.1745 10.8444 28.1731C10.3988 28.1725 9.95334 28.1725 9.5078 28.1742C9.09961 28.1757 8.69146 28.1754 8.28326 28.1737C8.13592 28.1734 7.98858 28.1738 7.84125 28.1749C6.71066 28.1827 5.80459 28.0451 4.9565 27.2449C4.33643 26.542 4.05257 25.6981 4.07798 24.7665C4.15715 23.9135 4.4742 23.2637 5.07819 22.6562C5.70452 22.1554 6.26762 21.8509 7.08076 21.8499Z" fill="#B8231E"/>
<path d="M7.08076 9.34987C7.14352 9.34953 7.20628 9.34919 7.27094 9.34884C7.48152 9.34793 7.69206 9.34841 7.90264 9.34888C8.05503 9.34852 8.20742 9.34807 8.35981 9.34754C8.77881 9.34635 9.19781 9.34637 9.61682 9.3466C10.0686 9.34664 10.5205 9.34557 10.9723 9.34464C11.8576 9.34302 12.743 9.34248 13.6283 9.34237C14.348 9.34228 15.0677 9.34188 15.7874 9.34126C17.8277 9.33954 19.868 9.33864 21.9083 9.33878C22.0733 9.33879 22.0733 9.33879 22.2417 9.33881C22.3518 9.33881 22.462 9.33882 22.5755 9.33883C24.3604 9.33891 26.1452 9.33704 27.9301 9.33429C29.7626 9.33148 31.5952 9.33013 33.4277 9.3303C34.4566 9.33037 35.4855 9.32983 36.5144 9.32773C37.3905 9.32595 38.2666 9.32552 39.1427 9.32685C39.5897 9.32749 40.0366 9.3275 40.4835 9.32581C40.8929 9.32427 41.3023 9.32455 41.7118 9.32625C41.8596 9.32655 42.0074 9.3262 42.1552 9.32511C43.2872 9.31731 44.1944 9.45384 45.0436 10.255C45.6637 10.958 45.9476 11.8019 45.9222 12.7335C45.8429 13.587 45.5256 14.2355 44.9219 14.8437C44.2708 15.3726 43.6602 15.6491 42.8112 15.6501C42.7172 15.6506 42.7172 15.6506 42.6212 15.6512C42.4114 15.6521 42.2016 15.6516 41.9918 15.6511C41.8397 15.6515 41.6877 15.6519 41.5356 15.6525C41.1179 15.6536 40.7003 15.6536 40.2826 15.6534C39.832 15.6534 39.3815 15.6544 38.9309 15.6554C38.0483 15.657 37.1656 15.6575 36.283 15.6576C35.5655 15.6577 34.848 15.6581 34.1305 15.6587C32.0961 15.6605 30.0618 15.6614 28.0275 15.6612C27.9178 15.6612 27.8082 15.6612 27.6952 15.6612C27.5853 15.6612 27.4755 15.6612 27.3624 15.6612C25.5829 15.6611 23.8034 15.663 22.0239 15.6657C20.1967 15.6685 18.3694 15.6699 16.5422 15.6697C15.5164 15.6696 14.4905 15.6702 13.4647 15.6723C12.5913 15.674 11.7178 15.6745 10.8444 15.6731C10.3988 15.6725 9.95334 15.6725 9.5078 15.6742C9.09961 15.6757 8.69146 15.6754 8.28326 15.6737C8.13592 15.6734 7.98858 15.6738 7.84125 15.6749C6.71066 15.6827 5.80459 15.5451 4.9565 14.7449C4.33643 14.042 4.05257 13.1981 4.07798 12.2665C4.15715 11.4135 4.4742 10.7637 5.07819 10.1562C5.70452 9.6554 6.26762 9.35088 7.08076 9.34987Z" fill="#B8231E"/>
</svg>
