<svg width="50" height="54" viewBox="0 0 50 54" fill="none" xmlns="http://www.w3.org/2000/svg">
<path d="M5.61299 12.3308C5.84097 12.4943 6.05662 12.66 6.27302 12.8378C6.3369 12.8894 6.40079 12.9409 6.46661 12.994C6.60199 13.1033 6.73713 13.213 6.87204 13.3229C7.1357 13.5377 7.40055 13.751 7.66542 13.9643C7.79671 14.0701 7.92792 14.1759 8.05905 14.2819C8.49394 14.6332 8.93145 14.9809 9.37058 15.3269C9.90295 15.7464 10.4286 16.1735 10.952 16.6043C11.4544 17.0175 11.9596 17.4256 12.4747 17.8225C12.5821 17.9053 12.6895 17.9882 12.8002 18.0735C12.9807 18.2126 13.1613 18.3515 13.3419 18.4903C13.5478 18.649 13.753 18.8085 13.9581 18.9682C14.055 19.0424 14.055 19.0424 14.1538 19.1181C14.3081 19.2388 14.4572 19.3663 14.6051 19.495C14.6051 19.5646 14.6051 19.6341 14.6051 19.7057C9.16799 21.3914 9.16799 21.3914 3.73093 23.0771C26.6074 23.1293 26.6074 23.1293 49.946 23.1825C49.9546 27.7653 49.9633 32.3481 49.9722 37.0697C49.976 38.5168 49.9798 39.9638 49.9837 41.4547C49.9856 43.2217 49.9856 43.2217 49.9859 44.0489C49.9863 44.6266 49.9879 45.2044 49.9902 45.7821C49.9928 46.4489 49.994 47.1157 49.9935 47.7825C49.9932 48.1234 49.9938 48.4642 49.9959 48.8051C49.998 49.1709 49.9974 49.5367 49.9963 49.9025C49.9975 50.0078 49.9987 50.113 50 50.2214C49.9904 51.3742 49.6343 52.2577 48.8424 53.0859C48.1302 53.7222 47.4675 53.9592 46.5274 53.9606C46.4215 53.961 46.4215 53.961 46.3134 53.9613C46.0758 53.962 45.8381 53.962 45.6004 53.962C45.4287 53.9623 45.257 53.9627 45.0853 53.9631C44.6126 53.9642 44.1399 53.9646 43.6672 53.9649C43.1577 53.9653 42.6482 53.9663 42.1388 53.9672C40.9079 53.9693 39.6771 53.9703 38.4463 53.9713C37.8668 53.9717 37.2872 53.9723 36.7077 53.9729C34.7814 53.9747 32.8551 53.9762 30.9288 53.9769C30.4289 53.9771 29.929 53.9773 29.4291 53.9776C29.3048 53.9776 29.1806 53.9776 29.0525 53.9777C27.0394 53.9786 25.0263 53.9812 23.0131 53.9847C20.9466 53.9882 18.8801 53.9901 16.8136 53.9904C15.6532 53.9906 14.4928 53.9915 13.3324 53.9942C12.3442 53.9965 11.356 53.9974 10.3678 53.9963C9.8637 53.9959 9.3596 53.9961 8.85547 53.9981C8.39365 54 7.93187 53.9999 7.47005 53.9982C7.30328 53.998 7.13652 53.9984 6.96976 53.9997C5.60264 54.0093 4.65731 53.8093 3.6476 52.8414C3.10191 52.2146 2.77211 51.4691 2.78153 50.6323C2.7827 50.4913 2.7827 50.4913 2.7839 50.3473C2.78599 50.193 2.78599 50.193 2.78813 50.0354C2.78916 49.9257 2.79019 49.816 2.79126 49.7029C2.79357 49.4618 2.79613 49.2207 2.79889 48.9796C2.80573 48.3791 2.81106 47.7787 2.81649 47.1782C2.81845 46.9621 2.82048 46.746 2.82252 46.5298C2.83234 45.4701 2.83874 44.4103 2.8432 43.3505C2.84369 43.2349 2.84369 43.2349 2.84419 43.1169C2.8472 42.4001 2.84996 41.6833 2.85245 40.9664C2.85417 40.4743 2.856 39.9822 2.85795 39.4901C2.85827 39.4084 2.85859 39.3267 2.85893 39.2426C2.86364 38.0981 2.87337 36.9537 2.88703 35.8093C2.91055 33.837 2.92443 31.8648 2.91896 29.8923C2.91876 29.8158 2.91856 29.7393 2.91835 29.6604C2.90427 25.038 2.5913 20.7871 0.736047 16.4985C0.504973 15.9626 0.315042 15.4232 0.151719 14.8626C0.130191 14.7905 0.108664 14.7183 0.0864835 14.6439C-0.00780443 14.3045 -0.0419352 14.1483 0.0713599 13.8058C0.275623 13.7071 0.275623 13.7071 0.546904 13.6232C0.648121 13.5912 0.749337 13.5593 0.85362 13.5263C0.963837 13.4931 1.07405 13.4598 1.18761 13.4255C1.30019 13.3906 1.41277 13.3558 1.52876 13.3198C1.76739 13.2462 2.00622 13.1733 2.24522 13.101C2.61134 12.9899 2.97663 12.8764 3.34189 12.7625C3.5735 12.6914 3.80515 12.6205 4.03684 12.5497C4.14642 12.5156 4.256 12.4815 4.36891 12.4464C4.47111 12.4157 4.57332 12.3851 4.67862 12.3535C4.76839 12.3262 4.85816 12.2988 4.95066 12.2706C5.21751 12.2212 5.36071 12.235 5.61299 12.3308ZM20.8786 32.3485C20.8786 36.4858 20.8786 40.6231 20.8786 44.8858C22.5188 43.9844 24.1448 43.0671 25.7569 42.1157C26.4294 41.7191 27.1043 41.3268 27.7795 40.935C28.0047 40.804 28.2299 40.673 28.455 40.542C28.8649 40.3036 29.2752 40.066 29.6862 39.8295C29.9789 39.6608 30.2711 39.4912 30.5634 39.3217C30.7271 39.228 30.7271 39.228 30.8942 39.1324C30.9934 39.0747 31.0926 39.017 31.1948 38.9575C31.3266 38.8815 31.3266 38.8815 31.461 38.8041C31.5228 38.7598 31.5845 38.7155 31.6482 38.6698C31.6482 38.6003 31.6482 38.5308 31.6482 38.4591C31.5414 38.4002 31.4347 38.3412 31.3247 38.2805C30.294 37.7088 29.2746 37.1197 28.2596 36.5203C27.4405 36.0371 26.6176 35.5611 25.7929 35.0877C24.6366 34.424 23.4855 33.7519 22.3371 33.0744C22.2481 33.0221 22.159 32.9697 22.0673 32.9158C21.9096 32.8229 21.7523 32.7295 21.5953 32.6355C21.2597 32.4196 21.2597 32.4196 20.8786 32.3485Z" fill="#B8231E"/>
<path d="M45.3454 0.00414592C45.9396 1.93514 46.5324 3.86657 47.1229 5.79873C47.1534 5.89863 47.184 5.99853 47.2154 6.10145C47.3796 6.63893 47.5425 7.17675 47.7045 7.71489C47.7614 7.90173 47.7614 7.90173 47.8195 8.09233C47.8528 8.20395 47.8862 8.31557 47.9206 8.43057C47.9487 8.5239 47.9768 8.61723 48.0058 8.71338C48.0639 8.95941 48.0639 8.95941 48.0639 9.38084C47.6457 9.51469 47.2273 9.64777 46.8087 9.78016C46.6665 9.82523 46.5245 9.87049 46.3824 9.91598C46.1773 9.98164 45.9719 10.0466 45.7665 10.1113C45.6433 10.1505 45.5201 10.1897 45.3932 10.23C45.0254 10.3308 44.68 10.4044 44.2998 10.4344C44.0378 10.2808 43.8499 10.1455 43.6267 9.94712C43.5335 9.86891 43.5335 9.86891 43.4385 9.78912C43.3053 9.67728 43.1729 9.5646 43.0411 9.45116C42.6966 9.15612 42.3443 8.87081 41.993 8.58408C41.9224 8.52607 41.8519 8.46806 41.7792 8.4083C41.3525 8.05783 40.9211 7.71545 40.4834 7.37907C39.8993 6.93017 39.3288 6.4662 38.7599 5.99797C38.1305 5.48061 37.4932 4.97403 36.8531 4.47031C36.5161 4.20482 36.1799 3.93826 35.8436 3.67185C35.7197 3.57376 35.5958 3.47568 35.4719 3.3776C35.3832 3.30738 35.2946 3.23717 35.2032 3.16483C35.3077 2.95412 35.3077 2.95412 35.56 2.85445C35.6723 2.82003 35.7846 2.78561 35.9004 2.75014C36.0913 2.69097 36.0913 2.69097 36.2861 2.6306C36.4271 2.5878 36.5681 2.54501 36.7091 2.50224C36.8548 2.45739 37.0005 2.41246 37.1462 2.36747C37.5329 2.24826 37.9199 2.13003 38.307 2.01199C38.6896 1.89515 39.072 1.77746 39.4544 1.6598C39.904 1.52147 40.3537 1.38331 40.8037 1.24593C41.5084 1.03067 42.2124 0.813566 42.9149 0.590703C43.1026 0.531405 43.1026 0.531405 43.2942 0.470908C43.5268 0.397297 43.7591 0.323099 43.9913 0.248203C44.1451 0.199637 44.1451 0.199637 44.3021 0.150091C44.3906 0.121737 44.4791 0.0933835 44.5702 0.0641707C44.837 0.000727398 45.0723 -0.0067385 45.3454 0.00414592Z" fill="#B8231E"/>
<path d="M31.439 4.4291C31.6682 4.59629 31.8663 4.75792 32.0729 4.9493C32.1931 5.05615 32.3134 5.16273 32.434 5.26907C32.4947 5.32287 32.5554 5.37667 32.618 5.43209C32.8898 5.66716 33.1727 5.88365 33.4583 6.10163C33.9791 6.49936 34.4883 6.90941 34.994 7.32639C35.4938 7.73825 35.9967 8.14357 36.5102 8.53799C37.0933 8.98611 37.6632 9.44867 38.2305 9.91701C38.5818 10.2065 38.935 10.4926 39.2944 10.7719C39.3626 10.8249 39.4307 10.878 39.5009 10.9326C39.6306 11.0331 39.7606 11.133 39.8911 11.2324C40.0401 11.3479 40.1839 11.47 40.3266 11.5933C40.3266 11.6628 40.3266 11.7324 40.3266 11.804C40.2592 11.8246 40.1919 11.8452 40.1226 11.8663C39.4741 12.0645 38.8256 12.2627 38.1771 12.4609C37.8441 12.5627 37.511 12.6645 37.178 12.7663C36.9201 12.8451 36.6623 12.9239 36.4044 13.0027C36.1463 13.0816 35.8882 13.1604 35.6301 13.239C34.9806 13.4373 34.3324 13.6386 33.6857 13.8461C33.561 13.8858 33.4362 13.9256 33.3076 13.9665C33.071 14.042 32.8346 14.1184 32.5985 14.1957C32.4932 14.2292 32.3879 14.2627 32.2793 14.2972C32.1414 14.3419 32.1414 14.3419 32.0006 14.3876C31.7334 14.4418 31.5883 14.426 31.3345 14.3326C31.1567 14.2133 31.1567 14.2133 30.9791 14.0634C30.9125 14.0079 30.8459 13.9524 30.7773 13.8953C30.7067 13.8353 30.6361 13.7754 30.5634 13.7136C30.4126 13.5878 30.2617 13.4622 30.1108 13.3366C30.0353 13.2735 29.9597 13.2105 29.8819 13.1455C29.5639 12.8821 29.2409 12.6256 28.9166 12.3703C28.8569 12.3233 28.7973 12.2762 28.7358 12.2277C28.5566 12.0864 28.3772 11.9452 28.1977 11.804C27.4313 11.2012 26.6695 10.5939 25.917 9.97346C25.3282 9.48843 24.7314 9.01559 24.1264 8.55116C24.0519 8.49389 23.9773 8.43662 23.9005 8.37761C23.5886 8.1385 23.276 7.90027 22.9624 7.66345C22.8764 7.59785 22.7904 7.53226 22.7018 7.46467C22.6305 7.41103 22.5592 7.35738 22.4858 7.30211C22.4385 7.25797 22.3911 7.21384 22.3424 7.16836C22.3424 7.09882 22.3424 7.02929 22.3424 6.95765C23.2923 6.66084 24.2421 6.36409 25.192 6.0674C25.6332 5.92961 26.0743 5.7918 26.5155 5.65394C26.9419 5.52069 27.3683 5.38749 27.7948 5.25432C27.9568 5.20372 28.1187 5.15311 28.2807 5.10249C28.649 4.98738 29.0173 4.87244 29.3858 4.75804C29.6219 4.68465 29.8578 4.61079 30.0936 4.53621C30.1866 4.50714 30.2797 4.47808 30.3756 4.44814C30.4531 4.42365 30.5306 4.39916 30.6105 4.37394C30.926 4.29522 31.1346 4.31816 31.439 4.4291Z" fill="#B8231E"/>
<path d="M18.7578 8.56556C18.8171 8.61513 18.8763 8.6647 18.9373 8.71577C19.0045 8.77145 19.0716 8.82714 19.1407 8.88451C19.2473 8.97373 19.2473 8.97373 19.356 9.06476C19.8749 9.49483 20.3962 9.91903 20.9309 10.329C21.4358 10.7168 21.9299 11.1155 22.4209 11.5209C22.9939 11.9938 23.575 12.4534 24.1657 12.9037C25.0782 13.5999 25.9601 14.331 26.8385 15.0701C26.9601 15.1721 27.0816 15.2742 27.2032 15.3762C27.2899 15.449 27.3765 15.5218 27.4658 15.5968C27.1844 15.8804 26.866 15.9494 26.4943 16.0636C26.4157 16.0883 26.3371 16.113 26.2562 16.1384C25.9958 16.22 25.7351 16.3007 25.4743 16.3812C25.2933 16.4376 25.1122 16.494 24.9312 16.5504C24.5512 16.6686 24.1712 16.7864 23.791 16.9038C23.3043 17.0541 22.818 17.2058 22.3319 17.358C21.9578 17.4748 21.5836 17.5909 21.2092 17.7066C21.0299 17.7622 20.8506 17.8181 20.6714 17.8743C20.4204 17.9528 20.1691 18.0302 19.9177 18.1073C19.844 18.1306 19.7703 18.154 19.6944 18.178C19.2766 18.3046 18.9099 18.3788 18.4738 18.3361C18.2397 18.174 18.0515 18.0222 17.8464 17.8291C17.7267 17.7217 17.6067 17.6146 17.4866 17.5077C17.3946 17.425 17.3946 17.425 17.3007 17.3407C17.0057 17.0816 16.6982 16.8395 16.3891 16.5977C16.3282 16.5499 16.2674 16.502 16.2047 16.4527C16.0813 16.3558 15.9579 16.2589 15.8344 16.1622C15.533 15.9261 15.2323 15.6893 14.9318 15.452C14.8721 15.4048 14.8123 15.3576 14.7507 15.309C14.205 14.8766 13.6675 14.4343 13.1299 13.9919C12.5975 13.555 12.0556 13.133 11.5096 12.7135C10.8214 12.1802 10.1533 11.6207 9.48169 11.0665C9.72931 10.817 9.89971 10.7728 10.2331 10.6695C10.3467 10.6339 10.4604 10.5984 10.5774 10.5617C10.7635 10.5046 10.7635 10.5046 10.9533 10.4463C11.0819 10.4063 11.2105 10.3662 11.343 10.325C11.6872 10.2178 12.0317 10.1114 12.3762 10.0052C12.7171 9.9 13.0577 9.794 13.3984 9.68805C13.9297 9.52283 14.4614 9.35886 14.9932 9.19548C15.4885 9.04301 15.9823 8.88662 16.4751 8.72621C16.5861 8.69063 16.6971 8.65504 16.8114 8.61837C17.0179 8.55206 17.2239 8.48457 17.4295 8.41568C17.5203 8.38681 17.6111 8.35793 17.7046 8.32817C17.783 8.30242 17.8614 8.27666 17.9421 8.25012C18.2871 8.20547 18.4878 8.36561 18.7578 8.56556Z" fill="#B8231E"/>
</svg>
