<svg width="30" height="30" viewBox="0 0 30 30" fill="none" xmlns="http://www.w3.org/2000/svg">
<g clip-path="url(#clip0_166_17)">
<path d="M1.7141 6.18763C1.80024 6.18751 1.88638 6.18734 1.97252 6.18712C2.15223 6.18686 2.33192 6.18723 2.51163 6.18806C2.74088 6.18906 2.9701 6.18848 3.19935 6.18743C3.37695 6.18679 3.55454 6.187 3.73215 6.18745C3.81664 6.18757 3.90113 6.18743 3.98562 6.18702C4.53809 6.18491 5.04896 6.18457 5.483 6.57722C5.83026 7.00398 5.99951 7.58443 6.17798 8.09696C7.06928 10.5702 8.58607 14.7521 11.0742 15.9961C11.2533 16.0199 11.423 16.025 11.6016 15.9961C11.8897 15.69 11.8449 15.2155 11.8454 14.8191C11.8457 14.7667 11.846 14.7142 11.8463 14.6602C11.8471 14.4872 11.8475 14.3142 11.8478 14.1413C11.848 14.0819 11.8482 14.0224 11.8483 13.9612C11.8492 13.6465 11.8498 13.3317 11.85 13.0169C11.8503 12.6937 11.8517 12.3705 11.8534 12.0473C11.8545 11.7972 11.8548 11.547 11.8549 11.2969C11.8551 11.1779 11.8555 11.0588 11.8563 10.9398C11.864 9.6754 11.6899 8.74983 10.8984 7.73441C10.6801 7.44812 10.5571 7.23043 10.5812 6.86192C10.6216 6.65616 10.698 6.53948 10.8398 6.38676C11.1685 6.21056 11.4375 6.18563 11.8064 6.18823C11.8607 6.18792 11.9149 6.18761 11.9709 6.1873C12.1493 6.18653 12.3277 6.18703 12.5061 6.18763C12.6307 6.18751 12.7552 6.18734 12.8797 6.18712C13.1404 6.18686 13.401 6.18724 13.6617 6.18806C13.9952 6.18906 14.3288 6.18848 14.6623 6.18743C14.9194 6.18679 15.1765 6.187 15.4335 6.18745C15.5565 6.18757 15.6795 6.18743 15.8024 6.18702C15.9745 6.18657 16.1465 6.18725 16.3186 6.18823C16.3943 6.1877 16.3943 6.1877 16.4716 6.18715C16.822 6.19082 17.1243 6.23697 17.3914 6.48563C17.6039 6.89944 17.5951 7.33448 17.594 7.78834C17.5945 7.89133 17.5945 7.89133 17.595 7.99639C17.5956 8.14483 17.5959 8.29327 17.596 8.44171C17.5962 8.67666 17.5972 8.91159 17.5984 9.14653C17.6013 9.72979 17.6031 10.3131 17.6043 10.8963C17.6053 11.3503 17.6066 11.8043 17.6092 12.2583C17.6103 12.4535 17.6109 12.6487 17.6109 12.8439C17.6109 13.0614 17.6119 13.2789 17.6133 13.4964C17.613 13.5607 17.6127 13.625 17.6124 13.6913C17.6161 14.0777 17.6437 14.3624 17.9297 14.6485C18.295 14.6855 18.5709 14.5502 18.8594 14.3406C19.0523 14.1827 19.2241 14.0098 19.3945 13.8282C19.4417 13.7822 19.4888 13.7363 19.5374 13.689C20.0602 13.1534 20.4892 12.5648 20.918 11.9532C20.9435 11.9171 20.969 11.881 20.9953 11.8438C21.9721 10.4567 22.8112 8.91045 23.4633 7.34503C23.6322 6.95424 23.826 6.58348 24.2136 6.37438C24.6854 6.19125 25.1286 6.17753 25.6297 6.18191C25.7156 6.1819 25.8014 6.18181 25.8872 6.18165C26.066 6.18157 26.2447 6.1823 26.4235 6.18364C26.6513 6.1853 26.8791 6.18514 27.1069 6.18439C27.2837 6.18399 27.4606 6.18445 27.6374 6.18517C27.7214 6.18543 27.8053 6.18546 27.8893 6.18523C28.7958 6.1839 28.7958 6.1839 29.1797 6.38676C29.3692 6.57622 29.4297 6.73682 29.447 6.99833C29.3368 9.18685 27.2249 11.641 26.0156 13.3594C25.067 14.4817 25.067 14.4817 24.6862 15.79C24.8463 16.3746 25.5362 16.8755 25.957 17.2889C26.8055 18.1248 26.8055 18.1248 27.0999 18.4719C27.2566 18.655 27.4246 18.8278 27.5903 19.0027C27.9217 19.3558 28.2367 19.7161 28.5352 20.0977C28.5641 20.1341 28.593 20.1705 28.6228 20.208C28.9706 20.6462 29.3076 21.0868 29.5972 21.5662C29.6179 21.6003 29.6386 21.6344 29.66 21.6696C29.8801 22.0462 30.0252 22.3928 30.022 22.8333C30.0224 22.8964 30.0229 22.9594 30.0234 23.0244C29.9923 23.2624 29.9162 23.4221 29.7276 23.5739C29.6943 23.5918 29.6609 23.6096 29.6265 23.628C29.5934 23.6464 29.5603 23.6648 29.5262 23.6838C29.2697 23.7906 29.0127 23.7971 28.7377 23.7995C28.6612 23.8002 28.5847 23.801 28.5059 23.8018C28.4227 23.8022 28.3396 23.8027 28.2564 23.8031C28.2141 23.8033 28.1719 23.8035 28.1284 23.8038C27.9046 23.805 27.6809 23.8058 27.4571 23.8064C27.2276 23.807 26.9981 23.8091 26.7687 23.8114C26.5908 23.8129 26.4129 23.8134 26.2351 23.8136C26.1506 23.8139 26.0661 23.8146 25.9815 23.8157C25.0464 23.827 24.4863 23.5792 23.8124 22.9418C23.5546 22.6887 23.313 22.4258 23.0761 22.1534C22.3858 21.3683 21.6615 20.5772 20.8397 19.9283C20.7352 19.8456 20.6323 19.7607 20.5312 19.6738C19.9097 19.1422 19.1703 18.5953 18.3252 18.5523C18.0871 18.5761 17.9487 18.6109 17.7539 18.75C17.6503 18.996 17.6217 19.2085 17.6199 19.4739C17.6191 19.5464 17.6183 19.619 17.6175 19.6937C17.6174 19.7321 17.6172 19.7704 17.6171 19.8099C17.6166 19.9309 17.6154 20.0518 17.614 20.1728C17.6112 20.4298 17.6092 20.6867 17.6074 20.9436C17.6053 21.2414 17.6029 21.5391 17.5995 21.8369C17.5983 21.9555 17.5978 22.0741 17.5973 22.1927C17.5884 23.0234 17.5884 23.0234 17.3824 23.3139C16.6196 23.963 15.32 23.8377 14.3813 23.7731C11.8989 23.5598 9.57694 22.3828 7.73438 20.7422C7.69909 20.7119 7.66381 20.6816 7.62745 20.6503C6.92328 20.0439 6.24116 19.3776 5.6836 18.6328C5.65375 18.5932 5.62389 18.5536 5.59313 18.5128C5.11803 17.881 4.65791 17.2394 4.21876 16.5821C4.19367 16.5446 4.16858 16.507 4.14274 16.4684C3.36239 15.2954 2.64772 14.0789 1.99219 12.8321C1.95192 12.756 1.95192 12.756 1.91083 12.6783C1.19843 11.3238 0.617672 9.90285 0.175786 8.43754C0.153505 8.36382 0.131223 8.2901 0.108266 8.21415C-0.0169767 7.74319 -0.079048 7.22148 5.06639e-06 6.73832C0.174557 6.44705 0.335185 6.34548 0.653983 6.24608C1.00289 6.17245 1.35906 6.1859 1.7141 6.18763Z" fill="#B8231E"/>
</g>
<defs>
<clipPath id="clip0_166_17">
<rect width="30" height="30" fill="white"/>
</clipPath>
</defs>
</svg>
